<svg xmlns="http://www.w3.org/2000/svg" viewBox="0 0 128 128"><path fill="#b89a62" d="M48 8h32v17H48z"/><path fill="#e9f5ee" stroke="#263c31" stroke-width="7" d="M52 22v27c-19 6-31 20-31 38 0 21 19 34 43 34s43-13 43-34c0-18-12-32-31-38V22z"/><path fill="#694098" d="M28 82c18 7 51-8 72 1 6 22-15 31-36 31-22 0-42-10-36-32z"/><circle cx="51" cy="84" r="8" fill="#fff"/><circle cx="77" cy="84" r="8" fill="#fff"/><path stroke="#fff" stroke-width="7" stroke-linecap="round" d="M50 103l28-18m0 18L50 85"/></svg>
